# xmcd
#
# Track frame offsets:
#	150
#	14803
#	31308
#	47271
#	65321
#	80814
#	92162
#	110291
#	121781
#	135057
#	147447
#	162413
#	182342
#	195057
#	221341
#	235693
#
# Disc length: 3326 seconds
#
# Revision: 1
# Processed by: cddbd v1.5.2PL0 Copyright (c) Steve Scherf et al.
# Submitted via: audiograbber 1.83.01
#
DISCID=c40cfc10
DTITLE=Johnstons - The Water Of Life
DYEAR=1900
DGENRE=
TTITLE0=The Water Of Life
TTITLE1=She Chose Home
TTITLE2=The Hills Of Connemara
TTITLE3=The Reasons I Am Me
TTITLE4=Another Good Reason
TTITLE5=Be My Guest
TTITLE6=Limerick You're A Lady
TTITLE7=Where The Three Counties Meet
TTITLE8=Come On In
TTITLE9=Act Naturally
TTITLE10=Let The Four Winds Blow
TTITLE11=The Fields Of Athenry
TTITLE12=The Spanish Lady
TTITLE13=Sea Of Heartbeark - Mama Tried - Oh, Lonesome Me
TTITLE14=The Strawberry Beds
TTITLE15=I'll Be On My Way
EXTD=
EXTT0=
EXTT1=
EXTT2=
EXTT3=
EXTT4=
EXTT5=
EXTT6=
EXTT7=
EXTT8=
EXTT9=
EXTT10=
EXTT11=
EXTT12=
EXTT13=
EXTT14=
EXTT15=
PLAYORDER=
